# xmcd
#
# Track frame offsets: 
#        150
#        14663
#        27147
#        50596
#        64657
#        74821
#        97132
#        111565
#        132736
#        149828
#        165648
#        177881
#
# Disc length: 2604 seconds
#
# Revision: 0
# Processed by: cddbd v1.5.2PL0 Copyright (c) Steve Scherf et al.
# Submitted via: ExactAudioCopy v1.3
#
DISCID=c40a2a0c
DTITLE=Big Joe and The Dynaflows - All Night Long
DYEAR=2013
DGENRE=Jump Blues, Rock and Roll, Swing
TTITLE0=All Night Long
TTITLE1=Down in Louisiana
TTITLE2=Move It or Lose It
TTITLE3=It Really Breaks My Heart
TTITLE4=My Baby's Tops
TTITLE5=The Church Of Your Love
TTITLE6=Mr. Nick
TTITLE7=Ham Hocks
TTITLE8=You Were Always There
TTITLE9=One More Time
TTITLE10=Honey Bee
TTITLE11=Third Class Citizen
EXTD=
EXTT0=
EXTT1=
EXTT2=
EXTT3=
EXTT4=
EXTT5=
EXTT6=
EXTT7=
EXTT8=
EXTT9=
EXTT10=
EXTT11=
PLAYORDER=
